<svg id="Livello_1" data-name="Livello 1" xmlns="http://www.w3.org/2000/svg" viewBox="0 0 283.46 283.46"><defs><style>.cls-1{fill:#f5f4f5;}</style></defs><title>todo_logo</title><path class="cls-1" d="M143.62,6.65c37.2.39,70.19,14.8,97.27,43,2.31,2.41,2.67,3.77.05,6.29q-46.35,44.63-92.45,89.53c-2.28,2.22-3.51,1.9-5.6-.15-13.17-12.93-26.46-25.74-39.71-38.58-7.13-6.92-13.65-7.09-21-.33Q73.44,114.52,65,123c-5.75,5.73-5.8,12.81,0,18.49q35.52,34.65,71.21,69.14c5.73,5.54,12.79,5.71,18.78.26,7.61-6.94,14.91-14.24,22.3-21.42q44.19-42.93,88.36-85.88c4.67-4.54,4.83-4.45,6.54,1.6,19.77,69.79-20.08,143.47-89.4,165.31C104.36,295.16,21.65,245.4,8.19,164.4-5.18,84,52,17,123.71,7.8,129.7,7,135.66,7,143.62,6.65Z"/></svg>